# Blender 4.0.2
# www.blender.org
mtllib arrow.mtl
o Cylinder
v 0.000000 -1.000000 -0.100000
v 0.000000 1.000000 -0.100000
v 0.019509 -1.000000 -0.098079
v 0.019509 1.000000 -0.098079
v 0.038268 -1.000000 -0.092388
v 0.038268 1.000000 -0.092388
v 0.055557 -1.000000 -0.083147
v 0.055557 1.000000 -0.083147
v 0.070711 -1.000000 -0.070711
v 0.070711 1.000000 -0.070711
v 0.083147 -1.000000 -0.055557
v 0.083147 1.000000 -0.055557
v 0.092388 -1.000000 -0.038268
v 0.092388 1.000000 -0.038268
v 0.098079 -1.000000 -0.019509
v 0.098079 1.000000 -0.019509
v 0.100000 -1.000000 0.000000
v 0.100000 1.000000 0.000000
v 0.098079 -1.000000 0.019509
v 0.098079 1.000000 0.019509
v 0.092388 -1.000000 0.038268
v 0.092388 1.000000 0.038268
v 0.083147 -1.000000 0.055557
v 0.083147 1.000000 0.055557
v 0.070711 -1.000000 0.070711
v 0.070711 1.000000 0.070711
v 0.055557 -1.000000 0.083147
v 0.055557 1.000000 0.083147
v 0.038268 -1.000000 0.092388
v 0.038268 1.000000 0.092388
v 0.019509 -1.000000 0.098079
v 0.019509 1.000000 0.098079
v 0.000000 -1.000000 0.100000
v 0.000000 1.000000 0.100000
v -0.019509 -1.000000 0.098079
v -0.019509 1.000000 0.098079
v -0.038268 -1.000000 0.092388
v -0.038268 1.000000 0.092388
v -0.055557 -1.000000 0.083147
v -0.055557 1.000000 0.083147
v -0.070711 -1.000000 0.070711
v -0.070711 1.000000 0.070711
v -0.083147 -1.000000 0.055557
v -0.083147 1.000000 0.055557
v -0.092388 -1.000000 0.038268
v -0.092388 1.000000 0.038268
v -0.098079 -1.000000 0.019509
v -0.098079 1.000000 0.019509
v -0.100000 -1.000000 0.000000
v -0.100000 1.000000 0.000000
v -0.098079 -1.000000 -0.019509
v -0.098079 1.000000 -0.019509
v -0.092388 -1.000000 -0.038268
v -0.092388 1.000000 -0.038268
v -0.083147 -1.000000 -0.055557
v -0.083147 1.000000 -0.055557
v -0.070711 -1.000000 -0.070711
v -0.070711 1.000000 -0.070711
v -0.055557 -1.000000 -0.083147
v -0.055557 1.000000 -0.083147
v -0.038268 -1.000000 -0.092388
v -0.038268 1.000000 -0.092388
v -0.019509 -1.000000 -0.098079
v -0.019509 1.000000 -0.098079
v 0.077765 1.049939 -0.390951
v 0.000000 1.049939 -0.398610
v 0.152542 1.049939 -0.368268
v 0.221456 1.049939 -0.331432
v 0.281860 1.049939 -0.281860
v 0.331432 1.049939 -0.221456
v 0.368268 1.049939 -0.152541
v 0.390951 1.049939 -0.077765
v 0.398610 1.049939 -0.000000
v 0.390951 1.049939 0.077765
v 0.368268 1.049939 0.152541
v 0.331432 1.049939 0.221456
v 0.281860 1.049939 0.281860
v 0.221456 1.049939 0.331432
v 0.152542 1.049939 0.368268
v 0.077765 1.049939 0.390951
v 0.000000 1.049939 0.398610
v -0.077765 1.049939 0.390951
v -0.152541 1.049939 0.368268
v -0.221456 1.049939 0.331432
v -0.281860 1.049939 0.281860
v -0.331432 1.049939 0.221456
v -0.368268 1.049939 0.152541
v -0.390951 1.049939 0.077765
v -0.398610 1.049939 -0.000000
v -0.390951 1.049939 -0.077765
v -0.368268 1.049939 -0.152541
v -0.331432 1.049939 -0.221456
v -0.281860 1.049939 -0.281860
v -0.221456 1.049939 -0.331432
v -0.152541 1.049939 -0.368268
v -0.077765 1.049939 -0.390951
v 0.000000 1.791934 0.000000
vn 0.0980 -0.0000 -0.9952
vn 0.2903 -0.0000 -0.9569
vn 0.4714 -0.0000 -0.8819
vn 0.6344 -0.0000 -0.7730
vn 0.7730 -0.0000 -0.6344
vn 0.8819 -0.0000 -0.4714
vn 0.9569 -0.0000 -0.2903
vn 0.9952 -0.0000 -0.0980
vn 0.9952 -0.0000 0.0980
vn 0.9569 -0.0000 0.2903
vn 0.8819 -0.0000 0.4714
vn 0.7730 -0.0000 0.6344
vn 0.6344 -0.0000 0.7730
vn 0.4714 -0.0000 0.8819
vn 0.2903 -0.0000 0.9569
vn 0.0980 -0.0000 0.9952
vn -0.0980 -0.0000 0.9952
vn -0.2903 -0.0000 0.9569
vn -0.4714 -0.0000 0.8819
vn -0.6344 -0.0000 0.7730
vn -0.7730 -0.0000 0.6344
vn -0.8819 -0.0000 0.4714
vn -0.9569 -0.0000 0.2903
vn -0.9952 -0.0000 0.0980
vn -0.9952 -0.0000 -0.0980
vn -0.9569 -0.0000 -0.2903
vn -0.8819 -0.0000 -0.4714
vn -0.7730 -0.0000 -0.6344
vn -0.6344 -0.0000 -0.7730
vn -0.4714 -0.0000 -0.8819
vn 0.0481 -0.9862 -0.1586
vn -0.2903 -0.0000 -0.9569
vn -0.0980 -0.0000 -0.9952
vn -0.0000 -1.0000 -0.0000
vn 0.4157 0.4715 -0.7777
vn 0.1462 -0.9862 0.0781
vn -0.1051 -0.9862 0.1281
vn -0.1051 -0.9862 -0.1281
vn 0.1586 -0.9862 -0.0481
vn 0.0162 -0.9862 0.1649
vn -0.1649 -0.9862 -0.0162
vn 0.0781 -0.9862 -0.1462
vn 0.1281 -0.9862 0.1051
vn -0.1281 -0.9862 0.1051
vn -0.0781 -0.9862 -0.1462
vn 0.1649 -0.9862 -0.0162
vn -0.0162 -0.9862 0.1649
vn -0.1586 -0.9862 -0.0481
vn 0.1051 -0.9862 -0.1281
vn 0.1051 -0.9862 0.1281
vn -0.1462 -0.9862 0.0781
vn -0.0481 -0.9862 -0.1586
vn 0.1649 -0.9862 0.0162
vn -0.0481 -0.9862 0.1586
vn -0.1462 -0.9862 -0.0781
vn 0.1281 -0.9862 -0.1051
vn 0.0781 -0.9862 0.1462
vn -0.1586 -0.9862 0.0481
vn 0.0162 -0.9862 -0.1649
vn -0.0162 -0.9862 -0.1649
vn 0.1586 -0.9862 0.0481
vn -0.0781 -0.9862 0.1462
vn -0.1281 -0.9862 -0.1051
vn 0.1462 -0.9862 -0.0781
vn 0.0481 -0.9862 0.1586
vn -0.1649 -0.9862 0.0162
vn -0.4157 0.4715 -0.7777
vn -0.0864 0.4715 0.8776
vn 0.5595 0.4715 -0.6817
vn -0.2560 0.4715 -0.8439
vn -0.2560 0.4715 0.8439
vn 0.6817 0.4715 -0.5595
vn -0.0864 0.4715 -0.8776
vn -0.4157 0.4715 0.7777
vn 0.7777 0.4715 -0.4157
vn -0.5595 0.4715 0.6817
vn 0.8439 0.4715 -0.2560
vn -0.6817 0.4715 0.5595
vn 0.8776 0.4715 -0.0864
vn -0.7777 0.4715 0.4157
vn 0.8776 0.4715 0.0864
vn -0.8439 0.4715 0.2560
vn 0.8439 0.4715 0.2560
vn -0.8776 0.4715 0.0864
vn 0.7777 0.4715 0.4157
vn -0.8776 0.4715 -0.0864
vn 0.6817 0.4715 0.5595
vn -0.8439 0.4715 -0.2560
vn 0.5595 0.4715 0.6817
vn -0.7777 0.4715 -0.4157
vn 0.4157 0.4715 0.7777
vn 0.0864 0.4715 -0.8776
vn -0.6817 0.4715 -0.5595
vn 0.2560 0.4715 0.8439
vn 0.2560 0.4715 -0.8439
vn -0.5595 0.4715 -0.6817
vn 0.0864 0.4715 0.8776
vt 1.000000 0.500000
vt 1.000000 1.000000
vt 0.968750 1.000000
vt 0.968750 0.500000
vt 0.937500 1.000000
vt 0.937500 0.500000
vt 0.906250 1.000000
vt 0.906250 0.500000
vt 0.875000 1.000000
vt 0.875000 0.500000
vt 0.843750 1.000000
vt 0.843750 0.500000
vt 0.812500 1.000000
vt 0.812500 0.500000
vt 0.781250 1.000000
vt 0.781250 0.500000
vt 0.750000 1.000000
vt 0.750000 0.500000
vt 0.718750 1.000000
vt 0.718750 0.500000
vt 0.687500 1.000000
vt 0.687500 0.500000
vt 0.656250 1.000000
vt 0.656250 0.500000
vt 0.625000 1.000000
vt 0.625000 0.500000
vt 0.593750 1.000000
vt 0.593750 0.500000
vt 0.562500 1.000000
vt 0.562500 0.500000
vt 0.531250 1.000000
vt 0.531250 0.500000
vt 0.500000 1.000000
vt 0.500000 0.500000
vt 0.468750 1.000000
vt 0.468750 0.500000
vt 0.437500 1.000000
vt 0.437500 0.500000
vt 0.406250 1.000000
vt 0.406250 0.500000
vt 0.375000 1.000000
vt 0.375000 0.500000
vt 0.343750 1.000000
vt 0.343750 0.500000
vt 0.312500 1.000000
vt 0.312500 0.500000
vt 0.281250 1.000000
vt 0.281250 0.500000
vt 0.250000 1.000000
vt 0.250000 0.500000
vt 0.218750 1.000000
vt 0.218750 0.500000
vt 0.187500 1.000000
vt 0.187500 0.500000
vt 0.156250 1.000000
vt 0.156250 0.500000
vt 0.125000 1.000000
vt 0.125000 0.500000
vt 0.093750 1.000000
vt 0.093750 0.500000
vt 0.062500 1.000000
vt 0.062500 0.500000
vt 0.031250 1.000000
vt 0.031250 0.500000
vt 0.000000 1.000000
vt 0.000000 0.500000
vt 0.750000 0.490000
vt 0.796822 0.485388
vt 0.841844 0.471731
vt 0.883337 0.449553
vt 0.919706 0.419706
vt 0.949553 0.383337
vt 0.971731 0.341844
vt 0.985388 0.296822
vt 0.990000 0.250000
vt 0.985388 0.203178
vt 0.971731 0.158156
vt 0.949553 0.116663
vt 0.919706 0.080294
vt 0.883337 0.050447
vt 0.841844 0.028269
vt 0.796822 0.014612
vt 0.750000 0.010000
vt 0.703178 0.014612
vt 0.658156 0.028269
vt 0.616663 0.050447
vt 0.580294 0.080294
vt 0.550447 0.116663
vt 0.528269 0.158156
vt 0.514612 0.203178
vt 0.510000 0.250000
vt 0.514612 0.296822
vt 0.528269 0.341844
vt 0.550447 0.383337
vt 0.580294 0.419706
vt 0.616663 0.449553
vt 0.658156 0.471731
vt 0.703178 0.485388
s 0
f 1/1/1 2/2/1 4/3/1 3/4/1
f 3/4/2 4/3/2 6/5/2 5/6/2
f 5/6/3 6/5/3 8/7/3 7/8/3
f 7/8/4 8/7/4 10/9/4 9/10/4
f 9/10/5 10/9/5 12/11/5 11/12/5
f 11/12/6 12/11/6 14/13/6 13/14/6
f 13/14/7 14/13/7 16/15/7 15/16/7
f 15/16/8 16/15/8 18/17/8 17/18/8
f 17/18/9 18/17/9 20/19/9 19/20/9
f 19/20/10 20/19/10 22/21/10 21/22/10
f 21/22/11 22/21/11 24/23/11 23/24/11
f 23/24/12 24/23/12 26/25/12 25/26/12
f 25/26/13 26/25/13 28/27/13 27/28/13
f 27/28/14 28/27/14 30/29/14 29/30/14
f 29/30/15 30/29/15 32/31/15 31/32/15
f 31/32/16 32/31/16 34/33/16 33/34/16
f 33/34/17 34/33/17 36/35/17 35/36/17
f 35/36/18 36/35/18 38/37/18 37/38/18
f 37/38/19 38/37/19 40/39/19 39/40/19
f 39/40/20 40/39/20 42/41/20 41/42/20
f 41/42/21 42/41/21 44/43/21 43/44/21
f 43/44/22 44/43/22 46/45/22 45/46/22
f 45/46/23 46/45/23 48/47/23 47/48/23
f 47/48/24 48/47/24 50/49/24 49/50/24
f 49/50/25 50/49/25 52/51/25 51/52/25
f 51/52/26 52/51/26 54/53/26 53/54/26
f 53/54/27 54/53/27 56/55/27 55/56/27
f 55/56/28 56/55/28 58/57/28 57/58/28
f 57/58/29 58/57/29 60/59/29 59/60/29
f 59/60/30 60/59/30 62/61/30 61/62/30
f 6/5/31 4/3/31 65/3/31 67/5/31
f 61/62/32 62/61/32 64/63/32 63/64/32
f 63/64/33 64/63/33 2/65/33 1/66/33
f 1/67/34 3/68/34 5/69/34 7/70/34 9/71/34 11/72/34 13/73/34 15/74/34 17/75/34 19/76/34 21/77/34 23/78/34 25/79/34 27/80/34 29/81/34 31/82/34 33/83/34 35/84/34 37/85/34 39/86/34 41/87/34 43/88/34 45/89/34 47/90/34 49/91/34 51/92/34 53/93/34 55/94/34 57/95/34 59/96/34 61/97/34 63/98/34
f 68/7/35 67/5/35 97/7/35
f 24/23/36 22/21/36 75/21/36 76/23/36
f 42/41/37 40/39/37 84/39/37 85/41/37
f 60/59/38 58/57/38 93/57/38 94/59/38
f 16/15/39 14/13/39 71/13/39 72/15/39
f 34/33/40 32/31/40 80/31/40 81/33/40
f 52/51/41 50/49/41 89/49/41 90/51/41
f 8/7/42 6/5/42 67/5/42 68/7/42
f 26/25/43 24/23/43 76/23/43 77/25/43
f 44/43/44 42/41/44 85/41/44 86/43/44
f 62/61/45 60/59/45 94/59/45 95/61/45
f 18/17/46 16/15/46 72/15/46 73/17/46
f 36/35/47 34/33/47 81/33/47 82/35/47
f 54/53/48 52/51/48 90/51/48 91/53/48
f 10/9/49 8/7/49 68/7/49 69/9/49
f 28/27/50 26/25/50 77/25/50 78/27/50
f 46/45/51 44/43/51 86/43/51 87/45/51
f 64/63/52 62/61/52 95/61/52 96/63/52
f 20/19/53 18/17/53 73/17/53 74/19/53
f 38/37/54 36/35/54 82/35/54 83/37/54
f 56/55/55 54/53/55 91/53/55 92/55/55
f 12/11/56 10/9/56 69/9/56 70/11/56
f 30/29/57 28/27/57 78/27/57 79/29/57
f 48/47/58 46/45/58 87/45/58 88/47/58
f 4/3/59 2/2/59 66/2/59 65/3/59
f 2/65/60 64/63/60 96/63/60 66/65/60
f 22/21/61 20/19/61 74/19/61 75/21/61
f 40/39/62 38/37/62 83/37/62 84/39/62
f 58/57/63 56/55/63 92/55/63 93/57/63
f 14/13/64 12/11/64 70/11/64 71/13/64
f 32/31/65 30/29/65 79/29/65 80/31/65
f 50/49/66 48/47/66 88/47/66 89/49/66
f 95/61/67 94/59/67 97/61/67
f 82/35/68 81/33/68 97/35/68
f 69/9/69 68/7/69 97/9/69
f 96/63/70 95/61/70 97/63/70
f 83/37/71 82/35/71 97/37/71
f 70/11/72 69/9/72 97/11/72
f 66/65/73 96/63/73 97/65/73
f 84/39/74 83/37/74 97/39/74
f 71/13/75 70/11/75 97/13/75
f 85/41/76 84/39/76 97/41/76
f 72/15/77 71/13/77 97/15/77
f 86/43/78 85/41/78 97/43/78
f 73/17/79 72/15/79 97/17/79
f 87/45/80 86/43/80 97/45/80
f 74/19/81 73/17/81 97/19/81
f 88/47/82 87/45/82 97/47/82
f 75/21/83 74/19/83 97/21/83
f 89/49/84 88/47/84 97/49/84
f 76/23/85 75/21/85 97/23/85
f 90/51/86 89/49/86 97/51/86
f 77/25/87 76/23/87 97/25/87
f 91/53/88 90/51/88 97/53/88
f 78/27/89 77/25/89 97/27/89
f 92/55/90 91/53/90 97/55/90
f 79/29/91 78/27/91 97/29/91
f 65/3/92 66/2/92 97/3/92
f 93/57/93 92/55/93 97/57/93
f 80/31/94 79/29/94 97/31/94
f 67/5/95 65/3/95 97/5/95
f 94/59/96 93/57/96 97/59/96
f 81/33/97 80/31/97 97/33/97
